<svg xmlns="http://www.w3.org/2000/svg" viewBox="80 140 440 440" role="img" aria-labelledby="ti">
  <title id="ti">Seko Fofana #6</title>
  <defs>
    <linearGradient id="ibg" x1="0" y1="0" x2="0" y2="1">
      <stop offset="0%" stop-color="#F77F00"/>
      <stop offset="100%" stop-color="#FFFFFF"/>
    </linearGradient>
  </defs>
  <rect x="80" y="140" width="440" height="440" fill="url(#ibg)"/>
  
    <g><line x1="460" y1="340" x2="500" y2="340" stroke="#009E60" stroke-width="22" opacity="0.92"/><line x1="438.5640646055102" y1="420" x2="473.20508075688775" y2="440" stroke="#009E60" stroke-width="22" opacity="0.92"/><line x1="380" y1="478.56406460551017" x2="400" y2="513.2050807568877" stroke="#009E60" stroke-width="22" opacity="0.92"/><line x1="300" y1="500" x2="300" y2="540" stroke="#009E60" stroke-width="22" opacity="0.92"/><line x1="220.00000000000003" y1="478.5640646055102" x2="200.00000000000006" y2="513.2050807568878" stroke="#009E60" stroke-width="22" opacity="0.92"/><line x1="161.4359353944898" y1="420" x2="126.79491924311225" y2="440" stroke="#009E60" stroke-width="22" opacity="0.92"/><line x1="140" y1="340" x2="100" y2="340" stroke="#009E60" stroke-width="22" opacity="0.92"/><line x1="161.43593539448983" y1="260" x2="126.79491924311228" y2="239.99999999999997" stroke="#009E60" stroke-width="22" opacity="0.92"/><line x1="219.99999999999994" y1="201.43593539448983" x2="199.99999999999991" y2="166.7949192431123" stroke="#009E60" stroke-width="22" opacity="0.92"/><line x1="299.99999999999994" y1="180" x2="299.99999999999994" y2="140" stroke="#009E60" stroke-width="22" opacity="0.92"/><line x1="380" y1="201.43593539448983" x2="400" y2="166.79491924311228" stroke="#009E60" stroke-width="22" opacity="0.92"/><line x1="438.5640646055101" y1="259.99999999999994" x2="473.2050807568877" y2="239.99999999999991" stroke="#009E60" stroke-width="22" opacity="0.92"/></g>
    <circle cx="300" cy="340" r="150" fill="#009E60" opacity="0.92"/>
    <circle cx="300" cy="340" r="60" fill="url(#bg)"/>
</svg>