<svg xmlns="http://www.w3.org/2000/svg" viewBox="0 0 600 800" role="img" aria-labelledby="t">
  <title id="t">Borja Iglesias #26</title>
  <defs>
    <linearGradient id="bg" x1="0" y1="0" x2="0" y2="1">
      <stop offset="0%" stop-color="#AA151B"/>
      <stop offset="100%" stop-color="#F1BF00"/>
    </linearGradient>
    <radialGradient id="vignette" cx="0.5" cy="0.4" r="0.7">
      <stop offset="0%" stop-color="transparent"/>
      <stop offset="100%" stop-color="rgba(0,0,0,0.45)"/>
    </radialGradient>
  </defs>
  <rect width="600" height="800" fill="url(#bg)"/>
  
    <g><line x1="300" y1="380" x2="331.2566719800475" y2="202.73460445780256" stroke="#F1BF00" stroke-width="10" opacity="0.85"/><line x1="300" y1="380" x2="390" y2="224.11542731880104" stroke="#F1BF00" stroke-width="10" opacity="0.85"/><line x1="300" y1="380" x2="437.88799976141604" y2="264.2982302564229" stroke="#F1BF00" stroke-width="10" opacity="0.85"/><line x1="300" y1="380" x2="469.1446717414635" y2="318.43637420137964" stroke="#F1BF00" stroke-width="10" opacity="0.85"/><line x1="300" y1="380" x2="480" y2="380" stroke="#F1BF00" stroke-width="10" opacity="0.85"/><line x1="300" y1="380" x2="469.1446717414635" y2="441.56362579862036" stroke="#F1BF00" stroke-width="10" opacity="0.85"/><line x1="300" y1="380" x2="437.88799976141604" y2="495.7017697435771" stroke="#F1BF00" stroke-width="10" opacity="0.85"/><line x1="300" y1="380" x2="390" y2="535.884572681199" stroke="#F1BF00" stroke-width="10" opacity="0.85"/><line x1="300" y1="380" x2="331.2566719800475" y2="557.2653955421974" stroke="#F1BF00" stroke-width="10" opacity="0.85"/></g>
    <path d="M120 380 Q300 200 480 380 Z" fill="#F1BF00" opacity="0.7"/>
    <circle cx="300" cy="380" r="22" fill="#fff"/>
  <rect width="600" height="800" fill="url(#vignette)"/>
  <text x="300" y="700" text-anchor="middle" font-family="Anton, Impact, sans-serif"
        font-size="180" fill="#fff" opacity="0.96" letter-spacing="4">LY26</text>
  <text x="540" y="80" text-anchor="end" font-family="JetBrains Mono, monospace"
        font-size="56" fill="#F1BF00" font-weight="700">#26</text>
  <text x="60" y="760" font-family="Anton, Impact, sans-serif"
        font-size="22" fill="#fff" opacity="0.55" letter-spacing="3">BORJA IGLESIAS</text>
</svg>