<svg xmlns="http://www.w3.org/2000/svg" viewBox="0 0 600 800" role="img" aria-labelledby="t">
  <title id="t">Dan Burn #15</title>
  <defs>
    <linearGradient id="bg" x1="0" y1="0" x2="0" y2="1">
      <stop offset="0%" stop-color="#FFFFFF"/>
      <stop offset="100%" stop-color="#CE1124"/>
    </linearGradient>
    <radialGradient id="vignette" cx="0.5" cy="0.4" r="0.7">
      <stop offset="0%" stop-color="transparent"/>
      <stop offset="100%" stop-color="rgba(0,0,0,0.45)"/>
    </radialGradient>
  </defs>
  <rect width="600" height="800" fill="url(#bg)"/>
  
    <g>
      <circle cx="220" cy="220" r="6" fill="#CE1124"/><circle cx="320" cy="260" r="6" fill="#CE1124"/><circle cx="420" cy="220" r="6" fill="#CE1124"/><circle cx="380" cy="360" r="6" fill="#CE1124"/><circle cx="260" cy="380" r="6" fill="#CE1124"/><circle cx="180" cy="460" r="6" fill="#CE1124"/><circle cx="340" cy="460" r="6" fill="#CE1124"/><circle cx="440" cy="420" r="6" fill="#CE1124"/><circle cx="300" cy="520" r="6" fill="#CE1124"/><circle cx="240" cy="300" r="6" fill="#CE1124"/>
      <polyline points="220,220 320,260 420,220 380,360 260,380 180,460 340,460 440,420 300,520 240,300" fill="none" stroke="#CE1124" stroke-width="2" opacity="0.55"/>
    </g>
  <rect width="600" height="800" fill="url(#vignette)"/>
  <text x="300" y="700" text-anchor="middle" font-family="Anton, Impact, sans-serif"
        font-size="180" fill="#fff" opacity="0.96" letter-spacing="4">DB</text>
  <text x="540" y="80" text-anchor="end" font-family="JetBrains Mono, monospace"
        font-size="56" fill="#CE1124" font-weight="700">#15</text>
  <text x="60" y="760" font-family="Anton, Impact, sans-serif"
        font-size="22" fill="#fff" opacity="0.55" letter-spacing="3">DAN BURN</text>
</svg>