<svg xmlns="http://www.w3.org/2000/svg" viewBox="80 140 440 440" role="img" aria-labelledby="ti">
  <title id="ti">Guillermo Martínez #22</title>
  <defs>
    <linearGradient id="ibg" x1="0" y1="0" x2="0" y2="1">
      <stop offset="0%" stop-color="#006847"/>
      <stop offset="100%" stop-color="#FFFFFF"/>
    </linearGradient>
  </defs>
  <rect x="80" y="140" width="440" height="440" fill="url(#ibg)"/>
  
    <path d="M300 340 m-120 0 a120 120 0 1 0 240 0 a120 120 0 1 0 -240 0
             M300 340 m-80  0 a80  80  0 1 1 160 0 a80  80  0 1 1 -160 0
             M300 340 m-40  0 a40  40  0 1 0 80  0 a40  40  0 1 0 -80  0"
          fill="none" stroke="#006847" stroke-width="14" opacity="0.85"/>
</svg>