<svg xmlns="http://www.w3.org/2000/svg" viewBox="80 140 440 440" role="img" aria-labelledby="ti">
  <title id="ti">Cristiano Ronaldo #7</title>
  <defs>
    <linearGradient id="ibg" x1="0" y1="0" x2="0" y2="1">
      <stop offset="0%" stop-color="#006600"/>
      <stop offset="100%" stop-color="#FF0000"/>
    </linearGradient>
  </defs>
  <rect x="80" y="140" width="440" height="440" fill="url(#ibg)"/>
  
    <g><line x1="380" y1="320" x2="560" y2="320" stroke="#FFD700" stroke-width="6" opacity="0.6"/><line x1="373.91036260090294" y1="350.6146745892072" x2="540.2086784529346" y2="419.49769241492334" stroke="#FFD700" stroke-width="6" opacity="0.6"/><line x1="356.5685424949238" y1="376.5685424949238" x2="483.84776310850236" y2="503.84776310850236" stroke="#FFD700" stroke-width="6" opacity="0.6"/><line x1="330.6146745892072" y1="393.91036260090294" x2="399.49769241492334" y2="560.2086784529346" stroke="#FFD700" stroke-width="6" opacity="0.6"/><line x1="300" y1="400" x2="300" y2="580" stroke="#FFD700" stroke-width="6" opacity="0.6"/><line x1="269.3853254107928" y1="393.91036260090294" x2="200.50230758507666" y2="560.2086784529346" stroke="#FFD700" stroke-width="6" opacity="0.6"/><line x1="243.4314575050762" y1="376.5685424949238" x2="116.15223689149767" y2="503.84776310850236" stroke="#FFD700" stroke-width="6" opacity="0.6"/><line x1="226.08963739909706" y1="350.6146745892072" x2="59.79132154706545" y2="419.4976924149234" stroke="#FFD700" stroke-width="6" opacity="0.6"/><line x1="220" y1="320" x2="40" y2="320.00000000000006" stroke="#FFD700" stroke-width="6" opacity="0.6"/><line x1="226.08963739909706" y1="289.38532541079286" x2="59.791321547065394" y2="220.5023075850768" stroke="#FFD700" stroke-width="6" opacity="0.6"/><line x1="243.4314575050762" y1="263.4314575050762" x2="116.15223689149761" y2="136.15223689149767" stroke="#FFD700" stroke-width="6" opacity="0.6"/><line x1="269.38532541079286" y1="246.08963739909706" x2="200.50230758507672" y2="79.79132154706542" stroke="#FFD700" stroke-width="6" opacity="0.6"/><line x1="300" y1="240" x2="299.99999999999994" y2="60" stroke="#FFD700" stroke-width="6" opacity="0.6"/><line x1="330.6146745892072" y1="246.08963739909706" x2="399.4976924149234" y2="79.79132154706548" stroke="#FFD700" stroke-width="6" opacity="0.6"/><line x1="356.5685424949238" y1="263.4314575050762" x2="483.8477631085023" y2="136.1522368914976" stroke="#FFD700" stroke-width="6" opacity="0.6"/><line x1="373.91036260090294" y1="289.38532541079286" x2="540.2086784529346" y2="220.50230758507672" stroke="#FFD700" stroke-width="6" opacity="0.6"/></g>
    <circle cx="300" cy="320" r="78" fill="#FFD700" opacity="0.9"/>
    <text x="300" y="550" text-anchor="middle" font-family="Anton, Impact, sans-serif"
          font-size="80" fill="#fff" opacity="0.2" letter-spacing="14">SIUUU</text>
</svg>