<svg xmlns="http://www.w3.org/2000/svg" viewBox="80 140 440 440" role="img" aria-labelledby="ti">
  <title id="ti">Eren Elmalı #13</title>
  <defs>
    <linearGradient id="ibg" x1="0" y1="0" x2="0" y2="1">
      <stop offset="0%" stop-color="#E30A17"/>
      <stop offset="100%" stop-color="#FFFFFF"/>
    </linearGradient>
  </defs>
  <rect x="80" y="140" width="440" height="440" fill="url(#ibg)"/>
  <g><line x1="300" y1="340" x2="500" y2="340" stroke="#FFFFFF" stroke-width="3" opacity="0.7"/><line x1="300" y1="340" x2="473.20508075688775" y2="440" stroke="#FFFFFF" stroke-width="3" opacity="0.7"/><line x1="300" y1="340" x2="400" y2="513.2050807568877" stroke="#FFFFFF" stroke-width="3" opacity="0.7"/><line x1="300" y1="340" x2="300" y2="540" stroke="#FFFFFF" stroke-width="3" opacity="0.7"/><line x1="300" y1="340" x2="200.00000000000006" y2="513.2050807568878" stroke="#FFFFFF" stroke-width="3" opacity="0.7"/><line x1="300" y1="340" x2="126.79491924311225" y2="440" stroke="#FFFFFF" stroke-width="3" opacity="0.7"/><line x1="300" y1="340" x2="100" y2="340" stroke="#FFFFFF" stroke-width="3" opacity="0.7"/><line x1="300" y1="340" x2="126.79491924311228" y2="239.99999999999997" stroke="#FFFFFF" stroke-width="3" opacity="0.7"/><line x1="300" y1="340" x2="199.99999999999991" y2="166.7949192431123" stroke="#FFFFFF" stroke-width="3" opacity="0.7"/><line x1="300" y1="340" x2="299.99999999999994" y2="140" stroke="#FFFFFF" stroke-width="3" opacity="0.7"/><line x1="300" y1="340" x2="400" y2="166.79491924311228" stroke="#FFFFFF" stroke-width="3" opacity="0.7"/><line x1="300" y1="340" x2="473.2050807568877" y2="239.99999999999991" stroke="#FFFFFF" stroke-width="3" opacity="0.7"/><circle cx="300" cy="340" r="60" fill="none" stroke="#FFFFFF" stroke-width="3" opacity="0.6"/><circle cx="300" cy="340" r="120" fill="none" stroke="#FFFFFF" stroke-width="3" opacity="0.6"/><circle cx="300" cy="340" r="180" fill="none" stroke="#FFFFFF" stroke-width="3" opacity="0.6"/></g>
</svg>